General
Complete name                    : Road House.mkv
Format                           : Matroska
File size                        : 1.05 GiB
Duration                         : 1h 49mn
Overall bit rate                 : 1 368 Kbps


Video
ID                               : 1
Format                           : AVC
Duration                         : 1h 49mn
Bit rate                         : 1 181 Kbps
Width                            : 720 pixels
Height                           : 434 pixels
Display aspect ratio             : 2.35:1
Frame rate                       : 25.000 fps
Resolution                       : 8 bits
Colorimetry                      : 4:2:0
Scan type                        : Progressive
Bits/(Pixel*Frame)               : 0.151
Stream size                      : 925 MiB (86%)
Writing library                  : x264 core 79


Audio
ID                               : 2
Format                           : MPEG Audio
Format version                   : Version 1
Format profile                   : Layer 3
Mode                             : Joint stereo / MS Stereo
Codec ID                         : A_MPEG/L3
Codec ID/Hint                    : MP3
Duration                         : 1h 49mn
Bit rate mode                    : Constant
Bit rate                         : 160 Kbps
Channel(s)                       : 2 channels
Sampling rate                    : 48.0 KHz
Stream size                      : 125 MiB (12%)
Writing library                  : LAME3.98
Language                         : English

Text #1
Language                         : English

Text #2
Language                         : German

Text #3
Language                         : French

Text #4
Language                         : Italian

Text #5
Language                         : Spanish

Text #6
Language                         : Dutch

Text #7
Language                         : Swedish

Text #8
Language                         : Norwegian

Text #9
Language                         : Danish


